<svg width="35" height="35" viewBox="0 0 35 35" fill="none" xmlns="http://www.w3.org/2000/svg">
<path d="M9.88003 13.8H32V16.44H9.88003V13.8ZM20.32 14.52H23.16V27.84H20.32V14.52ZM8.40003 6.43998L12.04 7.27998C11.9867 7.59998 11.72 7.78665 11.24 7.83998V13.68C11.24 14.6933 11.1867 15.8133 11.08 17.04C10.9734 18.24 10.7734 19.48 10.48 20.76C10.2134 22.0133 9.80003 23.2533 9.24003 24.48C8.7067 25.7066 7.9867 26.8533 7.08003 27.92C6.97336 27.7066 6.7867 27.4666 6.52003 27.2C6.28003 26.9333 6.01336 26.68 5.72003 26.44C5.45336 26.2 5.20003 26.0266 4.96003 25.92C5.97336 24.6666 6.72003 23.3333 7.20003 21.92C7.68003 20.48 8.00003 19.0533 8.16003 17.64C8.32003 16.2 8.40003 14.8533 8.40003 13.6V6.43998ZM26.48 4.63998L28.84 6.71998C27.2134 7.22665 25.3467 7.67998 23.24 8.07998C21.1334 8.45331 18.9334 8.77331 16.64 9.03998C14.3467 9.30665 12.1467 9.51998 10.04 9.67998C9.9867 9.38665 9.88003 9.01331 9.72003 8.55998C9.56003 8.07998 9.40003 7.69331 9.24003 7.39998C10.76 7.26664 12.3334 7.10665 13.96 6.91998C15.5867 6.73331 17.1734 6.53331 18.72 6.31998C20.2667 6.07998 21.7067 5.81331 23.04 5.51998C24.3734 5.22665 25.52 4.93331 26.48 4.63998ZM2.93851e-05 -2.19345e-05H33.48V2.83998H3.00003V34.76H2.93851e-05V-2.19345e-05ZM1.96003 29.76H34.48V32.64H1.96003V29.76Z" fill="#F59E0B"/>
</svg>
